<?xml version="1.0" encoding="utf-8"?>
<!-- Generator: Adobe Illustrator 27.4.1, SVG Export Plug-In . SVG Version: 6.00 Build 0)  -->
<svg version="1.1" id="Capa_1" xmlns="http://www.w3.org/2000/svg" xmlns:xlink="http://www.w3.org/1999/xlink" x="0px" y="0px"
	 viewBox="0 0 215.5 66" style="enable-background:new 0 0 215.5 66;" xml:space="preserve">
<style type="text/css">
	.st0{fill:#4D9ACA;}
</style>
<g>
	<path class="st0" d="M98.57,42.67c-0.52-0.7-1.18-1.26-1.97-1.71c-0.79-0.44-1.73-0.66-2.83-0.66c-0.43,0-0.85,0-1.26,0
		c-0.42,0-0.82,0.03-1.22,0.08c0.67-1.82,1.3-3.58,1.91-5.28c0.6-1.7,1.14-3.22,1.61-4.57c0.47-1.35,0.86-2.47,1.16-3.37
		c0.31-0.9,0.5-1.45,0.58-1.67c0.16-0.35-0.01-0.76-0.5-1.24c-0.5-0.48-1.09-0.94-1.79-1.36c-0.7-0.43-1.37-0.8-2.03-1.1
		c-0.66-0.31-1.05-0.46-1.18-0.46c-0.19,0.32-0.39,0.67-0.6,1.04c-0.19,0.35-0.42,0.75-0.68,1.2c-0.27,0.46-0.55,0.95-0.84,1.48
		c-0.43-0.45-1-0.89-1.71-1.3c-0.71-0.41-1.46-0.78-2.25-1.08c-0.79-0.31-1.54-0.56-2.27-0.74c-0.72-0.19-1.32-0.28-1.81-0.28
		c-0.32,0-0.7,0.21-1.14,0.64c-0.44,0.43-0.9,1-1.38,1.71c-0.48,0.71-0.96,1.52-1.44,2.45c-0.48,0.92-0.91,1.87-1.28,2.83
		c-0.18,0.47-0.34,0.93-0.49,1.39c-0.04,0.03-0.07,0.06-0.11,0.09c-0.56,0.46-1.14,0.83-1.73,1.12c-0.21,0.08-0.44,0.17-0.66,0.28
		c-0.23,0.11-0.49,0.2-0.78,0.28c0.67-1.47,0.98-2.55,0.92-3.25c-0.08-0.75-0.24-1.37-0.48-1.87c-0.24-0.49-0.53-0.9-0.86-1.22
		c-0.33-0.32-0.7-0.56-1.08-0.72c-0.39-0.16-0.78-0.28-1.18-0.36c-0.21-0.19-0.6-0.49-1.14-0.9c-0.55-0.41-1.16-0.83-1.83-1.24
		c-0.67-0.41-1.33-0.78-1.99-1.08c-0.66-0.31-1.2-0.46-1.63-0.46c-1.02,0-2.06,0.44-3.13,1.3c-1.07,0.87-2.02,1.99-2.85,3.35
		c-0.83,1.36-1.48,2.89-1.95,4.57c-0.47,1.68-0.62,3.36-0.46,5.02c0.05,0.56,0.35,1.21,0.88,1.95c0.54,0.74,1.18,1.44,1.95,2.11
		c0.76,0.67,1.56,1.24,2.41,1.71c0.84,0.47,1.6,0.7,2.27,0.7c0.86,0,1.7-0.21,2.53-0.62c0.83-0.41,1.63-0.96,2.39-1.62
		c0.76-0.67,1.47-1.43,2.13-2.29c0.66-0.86,1.25-1.71,1.79-2.57c1.23-0.13,2.46-0.49,3.69-1.08c0.06-0.03,0.12-0.07,0.18-0.1
		c-0.04,0.34-0.06,0.67-0.06,0.98c0,0.46,0.29,0.96,0.86,1.5c0.58,0.55,1.26,1.07,2.05,1.56c0.79,0.5,1.6,0.95,2.43,1.36
		c0.83,0.41,1.51,0.73,2.05,0.94c0.27,0.16,0.53,0.24,0.8,0.24c0.19,0,0.51-0.32,0.96-0.96c0.45-0.64,0.98-1.47,1.59-2.49
		c0.6-1.02,1.26-2.16,1.97-3.43c0.71-1.27,1.41-2.53,2.11-3.79c-0.54,1.79-1.14,3.68-1.83,5.66c-0.68,1.98-1.4,3.96-2.15,5.94
		c-1.93,0.45-3.68,1.04-5.26,1.77c-1.28,0.59-2.4,1.23-3.38,1.92c-0.34-0.19-0.69-0.37-1.07-0.53c-1.1-0.47-2.41-0.69-3.93-0.66
		c-1.44,0.03-3.17,0.05-5.18,0.08c-2.01,0.03-4.15,0.04-6.42,0.04c-2.27,0-4.61-0.01-7.02-0.02c-2.41-0.01-4.73-0.05-6.98-0.1
		c0.08-1.55,0.42-3.4,1.02-5.54c0.6-2.14,1.34-4.35,2.21-6.64c0.87-2.29,1.8-4.56,2.79-6.82c0.99-2.26,1.91-4.29,2.75-6.08
		c0.84-1.79,1.54-3.26,2.09-4.41c0.55-1.15,0.82-1.77,0.82-1.85c0-0.19-0.16-0.44-0.48-0.76c-0.32-0.32-0.72-0.66-1.2-1.02
		c-0.48-0.36-1.02-0.73-1.6-1.1c-0.59-0.37-1.15-0.72-1.69-1.04c-0.16-0.29-0.38-0.6-0.66-0.9C51.71,7.27,51.4,7,51.07,6.76
		c-0.33-0.24-0.66-0.43-0.98-0.58c-0.32-0.15-0.59-0.22-0.8-0.22c-0.59,0-1.42,0.24-2.51,0.72c-1.08,0.48-2.3,1.06-3.65,1.73
		c-1.35,0.67-2.76,1.36-4.23,2.07c-1.47,0.71-2.87,1.31-4.19,1.81c-1.32,0.5-2.52,0.8-3.59,0.92c-1.07,0.12-1.87-0.09-2.41-0.62
		c-0.27,0.29-0.34,0.63-0.2,1c0.13,0.37,0.39,0.77,0.76,1.18c0.37,0.42,0.85,0.82,1.42,1.22c0.58,0.4,1.17,0.76,1.79,1.06
		c0.62,0.31,1.2,0.56,1.77,0.76c0.56,0.2,1.04,0.3,1.44,0.3c0.37,0,0.88-0.17,1.52-0.52c0.64-0.35,1.37-0.79,2.19-1.32
		c0.82-0.53,1.69-1.12,2.61-1.77c0.92-0.64,1.85-1.24,2.77-1.81c0.92-0.56,1.82-1.06,2.69-1.48c0.87-0.43,1.65-0.7,2.35-0.8
		c-0.37,1.52-0.92,3.31-1.62,5.36c-0.71,2.05-1.49,4.16-2.35,6.34c-0.86,2.18-1.73,4.34-2.63,6.48c-0.9,2.14-1.71,4.09-2.45,5.84
		c-0.74,1.75-1.34,3.2-1.81,4.35c-0.47,1.15-0.7,1.83-0.7,2.05c0,0.4,0.12,0.81,0.36,1.22c0.24,0.41,0.58,0.82,1,1.22
		c-1.26-0.19-2.38-0.44-3.37-0.76c-0.99-0.32-1.82-0.72-2.49-1.2c-0.21,0.24-0.4,0.5-0.56,0.76c-0.13,0.21-0.26,0.47-0.38,0.76
		c-0.12,0.29-0.18,0.57-0.18,0.84c0,0.27,0.12,0.72,0.36,1.34c0.24,0.63,0.68,1.26,1.3,1.91c0.63,0.64,1.48,1.2,2.55,1.67
		c1.07,0.47,2.43,0.69,4.09,0.66c0.32,0,1.05-0.01,2.19-0.04c1.14-0.03,2.55-0.05,4.25-0.08c1.7-0.03,3.59-0.04,5.68-0.04
		c2.09,0,4.24,0.02,6.46,0.06c2.22,0.04,4.42,0.13,6.6,0.26c2.18,0.13,4.21,0.31,6.1,0.54c0.1,0.01,0.2,0.03,0.3,0.04
		c-0.1,0.39-0.16,0.79-0.16,1.18c0,1.9,0.27,3.42,0.82,4.57c0.55,1.15,1.23,2.05,2.05,2.69c0.82,0.64,1.69,1.07,2.61,1.28
		c0.92,0.21,1.76,0.32,2.51,0.32c0.59,0,1.24-0.4,1.97-1.18c0.72-0.79,1.46-1.84,2.23-3.15c0.76-1.31,1.54-2.83,2.33-4.55
		c0.79-1.73,1.57-3.54,2.35-5.44c1.5,0.03,2.75,0.21,3.77,0.56c1.02,0.35,1.83,0.79,2.45,1.32c0.62,0.53,1.05,1.13,1.3,1.79
		c0.25,0.66,0.38,1.28,0.38,1.87c0,0.24,0.15,0.26,0.46,0.06c0.31-0.2,0.66-0.51,1.04-0.92c0.39-0.42,0.74-0.88,1.04-1.38
		c0.31-0.51,0.46-0.95,0.46-1.32c0-0.88-0.13-1.77-0.38-2.65C99.48,44.16,99.1,43.37,98.57,42.67z M65.17,36.21
		c-0.46,0.67-0.92,1.26-1.38,1.77c-0.47,0.51-0.94,0.92-1.4,1.22c-0.47,0.31-0.92,0.46-1.34,0.46c-0.11,0-0.19-0.05-0.26-0.14
		c-0.07-0.09-0.12-0.21-0.16-0.34c-0.04-0.13-0.07-0.27-0.08-0.4c-0.01-0.13-0.02-0.24-0.02-0.32c-0.13-1.28,0.05-2.65,0.54-4.09
		c0.49-1.44,1.17-2.81,2.03-4.09c0.16,0.4,0.35,0.77,0.56,1.1c0.21,0.33,0.43,0.64,0.64,0.9c0.32,0.38,0.67,0.72,1.04,1.04
		c0.37,0.32,0.75,0.59,1.12,0.8C66.05,34.85,65.62,35.54,65.17,36.21z M68.54,29.51c-0.27,0.8-0.63,1.69-1.08,2.65
		c-0.27-0.16-0.54-0.37-0.82-0.62c-0.28-0.25-0.54-0.53-0.78-0.84c-0.24-0.31-0.45-0.64-0.62-1c-0.17-0.36-0.27-0.72-0.3-1.06
		c0-0.13,0-0.26,0-0.38c0-0.12,0.03-0.25,0.08-0.38c0.75-0.86,1.48-1.48,2.21-1.89c0.35,0.05,0.69,0.2,1.02,0.44
		c0.33,0.24,0.54,0.67,0.62,1.28C68.91,28.1,68.81,28.71,68.54,29.51z M86.68,28.83c-0.59,0.96-1.16,1.89-1.73,2.79
		c-0.56,0.9-1.1,1.74-1.63,2.53c-0.52,0.79-0.99,1.44-1.4,1.95c-0.42,0.51-0.74,0.86-0.98,1.04c-0.24,0.19-0.38,0.13-0.4-0.16
		c0.08-0.53,0.24-1.18,0.48-1.95c0.24-0.76,0.53-1.56,0.86-2.41c0.33-0.84,0.7-1.67,1.1-2.49c0.4-0.82,0.82-1.55,1.26-2.21
		c0.44-0.66,0.89-1.18,1.34-1.59c0.45-0.4,0.88-0.6,1.28-0.6c0.29,0,0.55,0.03,0.78,0.1c0.23,0.07,0.45,0.14,0.66,0.22
		C87.81,26.94,87.27,27.86,86.68,28.83z M80,53.52c-0.44,0.87-0.84,1.55-1.2,2.05c-0.36,0.5-0.64,0.74-0.82,0.74
		c-0.05,0-0.13-0.04-0.22-0.12c-0.09-0.08-0.19-0.26-0.28-0.54c-0.09-0.28-0.17-0.69-0.24-1.22c-0.07-0.54-0.1-1.27-0.1-2.21
		c0-0.47,0.08-0.93,0.25-1.37c1.31,0.33,2.3,0.73,2.96,1.21c0.11,0.11,0.21,0.16,0.29,0.17C80.41,52.7,80.2,53.13,80,53.52z
		 M81.46,50.43c-0.17,0.38-0.34,0.74-0.5,1.09c0-0.26-0.04-0.56-0.12-0.93c-0.15-0.63-0.43-1.34-0.84-2.15
		c-0.06-0.11-0.13-0.22-0.19-0.33c0.93-0.63,2.03-1.15,3.3-1.55C82.54,47.95,82,49.24,81.46,50.43z"/>
	<path class="st0" d="M135.63,16.85c0.56,0.47,1.19,0.89,1.89,1.26c0.69,0.37,1.37,0.68,2.03,0.9c0.65,0.23,1.08,0.34,1.26,0.34
		c0-0.29,0.08-0.7,0.24-1.22c0.16-0.52,0.36-1.08,0.6-1.67c0.24-0.59,0.5-1.18,0.76-1.79c0.27-0.6,0.51-1.14,0.72-1.62
		c0.11-0.21,0.05-0.47-0.16-0.76c-0.21-0.29-0.51-0.59-0.88-0.9c-0.37-0.31-0.8-0.61-1.28-0.9c-0.48-0.29-0.94-0.56-1.38-0.78
		c-0.44-0.23-0.83-0.41-1.16-0.56c-0.33-0.15-0.54-0.22-0.62-0.22c0,0.19-0.15,0.53-0.44,1.02c-0.29,0.5-0.62,1.06-0.98,1.71
		c-0.36,0.64-0.69,1.3-0.98,1.99c-0.29,0.68-0.44,1.29-0.44,1.83C134.79,15.92,135.07,16.38,135.63,16.85z"/>
	<path class="st0" d="M160.79,25.1c-0.54-0.78-1.2-1.48-1.99-2.11c-0.79-0.63-1.64-1.14-2.55-1.52c-0.91-0.39-1.73-0.58-2.45-0.58
		c-0.64,0-1.28,0.19-1.91,0.58c-0.63,0.39-1.25,0.93-1.87,1.63c-0.03-0.4-0.25-0.86-0.66-1.38c-0.41-0.52-0.91-1-1.48-1.44
		c-0.58-0.44-1.2-0.82-1.87-1.12c-0.67-0.31-1.26-0.46-1.77-0.46c0,0.24-0.12,0.82-0.36,1.75c-0.24,0.92-0.55,2.06-0.92,3.41
		c-0.34,1.22-0.73,2.58-1.16,4.06l-6.94,9.24c0.21-1.34,0.54-2.71,0.98-4.13c0.44-1.42,0.9-2.75,1.38-3.99
		c0.48-1.24,0.94-2.33,1.36-3.25c0.43-0.92,0.72-1.57,0.88-1.95c0.11-0.21,0.05-0.47-0.16-0.76c-0.22-0.29-0.51-0.59-0.88-0.9
		c-0.37-0.31-0.8-0.61-1.28-0.9c-0.48-0.29-0.94-0.55-1.38-0.78c-0.44-0.23-0.83-0.41-1.16-0.56c-0.33-0.15-0.54-0.22-0.62-0.22
		c0,0.11-0.13,0.48-0.4,1.1c-0.27,0.63-0.6,1.42-1,2.37c-0.4,0.95-0.84,2.01-1.32,3.17c-0.02,0.04-0.03,0.08-0.05,0.12
		c-1.24,1.77-2.45,3.49-3.6,5.15c-0.56,0.78-1.14,1.58-1.73,2.41c-0.59,0.83-1.17,1.64-1.75,2.43c-0.58,0.79-1.14,1.53-1.68,2.23
		c-0.55,0.7-1.04,1.3-1.46,1.81c0.43-2.38,1.08-4.84,1.95-7.38c0.87-2.54,1.8-4.98,2.79-7.3c0.37,0.05,0.76,0.11,1.14,0.18
		c0.39,0.07,0.8,0.14,1.22,0.22c0.24,0.03,0.52-0.13,0.84-0.48c0.32-0.35,0.63-0.77,0.92-1.26c0.29-0.49,0.58-1.02,0.84-1.56
		c0.27-0.55,0.47-1.04,0.6-1.46c0.13-0.43,0.19-0.73,0.16-0.9c-0.03-0.17-0.17-0.14-0.44,0.1c-0.21,0.21-0.6,0.35-1.16,0.4
		c-0.56,0.05-1.22,0.05-1.97,0c0.37-0.8,0.69-1.47,0.94-2.01c0.25-0.53,0.47-0.97,0.64-1.3c0.17-0.33,0.31-0.6,0.4-0.8
		c0.09-0.2,0.17-0.38,0.22-0.54c0.16-0.35,0.02-0.8-0.42-1.36c-0.44-0.56-0.98-1.09-1.63-1.59c-0.64-0.49-1.28-0.9-1.93-1.2
		c-0.64-0.31-1.07-0.39-1.28-0.26c-0.35,0.62-0.66,1.21-0.94,1.79c-0.28,0.58-0.57,1.18-0.86,1.81c-0.29,0.63-0.6,1.32-0.92,2.07
		c-0.32,0.75-0.68,1.59-1.08,2.53c-0.8-0.08-1.49-0.12-2.07-0.12c-0.58,0-0.96,0.09-1.14,0.28c-0.32,0.32-0.69,0.76-1.1,1.32
		c-0.41,0.56-0.79,1.14-1.12,1.73c-0.33,0.59-0.59,1.12-0.78,1.6c-0.19,0.48-0.2,0.79-0.04,0.92c0.08,0.11,0.17,0.13,0.28,0.08
		c0.11-0.05,0.29-0.13,0.56-0.24c0.27-0.11,0.66-0.22,1.18-0.34c0.52-0.12,1.25-0.18,2.19-0.18c-0.59,1.55-1.14,3.07-1.65,4.55
		c-0.04,0.11-0.07,0.21-0.11,0.32c-0.27,0.25-0.54,0.48-0.82,0.71c-0.56,0.46-1.14,0.83-1.73,1.12c-0.21,0.08-0.43,0.17-0.66,0.28
		c-0.23,0.11-0.49,0.2-0.78,0.28c0.67-1.47,0.98-2.55,0.92-3.25c-0.08-0.75-0.24-1.37-0.48-1.87c-0.24-0.49-0.53-0.9-0.86-1.22
		c-0.33-0.32-0.7-0.56-1.08-0.72s-0.78-0.28-1.18-0.36c-0.21-0.19-0.6-0.49-1.14-0.9c-0.55-0.41-1.16-0.83-1.83-1.24
		c-0.67-0.41-1.33-0.78-1.99-1.08c-0.66-0.31-1.2-0.46-1.63-0.46c-1.02,0-2.06,0.44-3.13,1.3c-1.07,0.87-2.02,1.99-2.85,3.35
		c-0.83,1.36-1.48,2.89-1.95,4.57c-0.47,1.68-0.62,3.36-0.46,5.02c0.05,0.56,0.35,1.21,0.88,1.95c0.54,0.74,1.18,1.44,1.95,2.11
		c0.76,0.67,1.56,1.24,2.41,1.71c0.84,0.47,1.6,0.7,2.27,0.7c0.86,0,1.7-0.21,2.53-0.62c0.83-0.41,1.63-0.96,2.39-1.62
		c0.76-0.67,1.47-1.43,2.13-2.29c0.66-0.86,1.25-1.71,1.79-2.57c1.23-0.13,2.46-0.49,3.69-1.08c0.16-0.08,0.32-0.17,0.47-0.26
		c-0.03,0.1-0.06,0.2-0.09,0.3c-0.39,1.28-0.69,2.44-0.9,3.47c-0.21,1.03-0.32,1.85-0.32,2.47c0,0.37,0.17,0.78,0.52,1.2
		c0.35,0.43,0.77,0.86,1.26,1.28c0.5,0.43,1.02,0.83,1.56,1.2c0.55,0.37,1.04,0.68,1.46,0.92c0.48,0.4,0.95,0.6,1.4,0.6
		c0.08,0,0.31-0.24,0.7-0.72c0.39-0.48,0.87-1.12,1.44-1.93c0.57-0.8,1.22-1.71,1.95-2.73c0.72-1.02,1.44-2.06,2.17-3.13
		c0.47-0.68,0.95-1.38,1.44-2.11c-0.1,0.6-0.16,1.15-0.16,1.63c0,0.4,0.23,0.86,0.7,1.36c0.47,0.51,1.02,1,1.67,1.48
		c0.64,0.48,1.29,0.91,1.95,1.28c0.66,0.37,1.17,0.63,1.55,0.76c0.21,0.13,0.42,0.25,0.62,0.36c0.2,0.11,0.41,0.16,0.62,0.16
		c0.08,0,0.27-0.19,0.58-0.58c0.31-0.39,0.69-0.9,1.14-1.54c0.45-0.64,0.96-1.37,1.5-2.19c0.14-0.21,0.29-0.44,0.44-0.66
		c-0.22,0.78-0.46,1.56-0.68,2.34c-0.49,1.75-0.93,3.38-1.3,4.9c-0.37,1.51-0.68,2.84-0.92,3.97c-0.24,1.14-0.36,1.99-0.36,2.55
		c0,0.11,0.13,0.31,0.4,0.6c0.27,0.29,0.61,0.62,1.02,0.98c0.41,0.36,0.87,0.74,1.36,1.12c0.5,0.39,0.98,0.72,1.44,1
		c0.47,0.28,0.9,0.47,1.28,0.58c0.39,0.11,0.67,0.07,0.86-0.12V53.1c0.08-1.36,0.31-3.04,0.68-5.04c0.37-1.99,0.86-4.07,1.44-6.24
		c0.59-2.17,1.26-4.33,2.01-6.5c0.75-2.17,1.56-4.11,2.43-5.82c0.87-1.71,1.77-3.1,2.69-4.17c0.92-1.07,1.85-1.6,2.79-1.6
		c0.21,0,0.38,0.07,0.5,0.22c0.12,0.15,0.18,0.41,0.18,0.78c0,0.27-0.07,0.78-0.22,1.52c-0.15,0.75-0.37,1.61-0.66,2.59
		c-0.29,0.98-0.64,1.99-1.04,3.03c-0.4,1.04-0.85,2.01-1.34,2.89c-0.5,0.88-1.04,1.61-1.65,2.19c-0.6,0.58-1.22,0.86-1.87,0.86
		c-0.37,0-0.69-0.05-0.94-0.16c-0.25-0.11-0.46-0.21-0.62-0.3c-0.16-0.09-0.28-0.14-0.36-0.14c-0.08,0-0.12,0.12-0.12,0.36
		c0,0.24,0.22,0.59,0.66,1.04c0.44,0.46,1.03,0.91,1.77,1.36c0.74,0.45,1.57,0.85,2.51,1.18c0.94,0.33,1.9,0.5,2.89,0.5
		c0.56,0,1.13-0.28,1.71-0.84c0.58-0.56,1.14-1.29,1.71-2.19c0.56-0.9,1.08-1.89,1.57-2.99c0.48-1.1,0.91-2.17,1.28-3.23
		c0.37-1.06,0.67-2.03,0.88-2.93c0.21-0.9,0.32-1.6,0.32-2.11C161.59,26.63,161.32,25.87,160.79,25.1z M106.54,36.21
		c-0.46,0.67-0.92,1.26-1.38,1.77c-0.47,0.51-0.94,0.92-1.4,1.22c-0.47,0.31-0.92,0.46-1.34,0.46c-0.11,0-0.19-0.05-0.26-0.14
		c-0.07-0.09-0.12-0.21-0.16-0.34c-0.04-0.13-0.07-0.27-0.08-0.4c-0.01-0.13-0.02-0.24-0.02-0.32c-0.13-1.28,0.05-2.65,0.54-4.09
		c0.49-1.44,1.17-2.81,2.03-4.09c0.16,0.4,0.35,0.77,0.56,1.1c0.21,0.33,0.43,0.64,0.64,0.9c0.32,0.38,0.67,0.72,1.04,1.04
		c0.37,0.32,0.75,0.59,1.12,0.8C107.42,34.85,106.99,35.54,106.54,36.21z M109.91,29.51c-0.27,0.8-0.63,1.69-1.08,2.65
		c-0.27-0.16-0.54-0.37-0.82-0.62c-0.28-0.25-0.54-0.53-0.78-0.84c-0.24-0.31-0.45-0.64-0.62-1c-0.17-0.36-0.27-0.72-0.3-1.06
		c0-0.13,0-0.26,0-0.38c0-0.12,0.03-0.25,0.08-0.38c0.75-0.86,1.48-1.48,2.21-1.89c0.35,0.05,0.69,0.2,1.02,0.44
		c0.33,0.24,0.54,0.67,0.62,1.28C110.28,28.1,110.18,28.71,109.91,29.51z"/>
	<path class="st0" d="M186.99,27.3c-0.11-0.48-0.28-0.95-0.52-1.4c-0.32,0.56-0.69,1.13-1.1,1.71c-0.41,0.58-0.88,1.13-1.38,1.67
		c-0.51,0.54-1.04,1.03-1.6,1.48c-0.56,0.46-1.14,0.83-1.73,1.12c-0.21,0.08-0.43,0.17-0.66,0.28c-0.23,0.11-0.49,0.2-0.78,0.28
		c0.67-1.47,0.98-2.55,0.92-3.25c-0.08-0.75-0.24-1.37-0.48-1.87c-0.24-0.49-0.53-0.9-0.86-1.22c-0.34-0.32-0.7-0.56-1.08-0.72
		c-0.39-0.16-0.78-0.28-1.18-0.36c-0.21-0.19-0.6-0.49-1.14-0.9c-0.55-0.41-1.16-0.83-1.83-1.24c-0.67-0.41-1.33-0.78-1.99-1.08
		c-0.66-0.31-1.2-0.46-1.63-0.46c-1.02,0-2.06,0.44-3.13,1.3c-1.07,0.87-2.02,1.99-2.85,3.35c-0.83,1.36-1.48,2.89-1.95,4.57
		c-0.47,1.68-0.62,3.36-0.46,5.02c0.05,0.56,0.35,1.21,0.88,1.95c0.54,0.74,1.18,1.44,1.95,2.11c0.76,0.67,1.56,1.24,2.41,1.71
		c0.84,0.47,1.6,0.7,2.27,0.7c0.86,0,1.7-0.21,2.53-0.62c0.83-0.41,1.62-0.96,2.39-1.62c0.76-0.67,1.47-1.43,2.13-2.29
		c0.66-0.86,1.25-1.71,1.79-2.57c1.23-0.13,2.46-0.49,3.69-1.08c0.94-0.45,1.85-1,2.75-1.65c0.9-0.64,1.62-1.34,2.19-2.09
		c0.32-0.45,0.5-0.93,0.54-1.42C187.09,28.19,187.07,27.73,186.99,27.3z M172.51,36.21c-0.46,0.67-0.92,1.26-1.38,1.77
		c-0.47,0.51-0.94,0.92-1.4,1.22c-0.47,0.31-0.92,0.46-1.34,0.46c-0.11,0-0.19-0.05-0.26-0.14c-0.07-0.09-0.12-0.21-0.16-0.34
		c-0.04-0.13-0.07-0.27-0.08-0.4c-0.01-0.13-0.02-0.24-0.02-0.32c-0.13-1.28,0.05-2.65,0.54-4.09c0.49-1.44,1.17-2.81,2.03-4.09
		c0.16,0.4,0.35,0.77,0.56,1.1c0.21,0.33,0.43,0.64,0.64,0.9c0.32,0.38,0.67,0.72,1.04,1.04c0.37,0.32,0.75,0.59,1.12,0.8
		C173.39,34.85,172.96,35.54,172.51,36.21z M175.88,29.51c-0.27,0.8-0.63,1.69-1.08,2.65c-0.27-0.16-0.54-0.37-0.82-0.62
		c-0.28-0.25-0.54-0.53-0.78-0.84c-0.24-0.31-0.45-0.64-0.62-1c-0.17-0.36-0.27-0.72-0.3-1.06c0-0.13,0-0.26,0-0.38
		c0-0.12,0.03-0.25,0.08-0.38c0.75-0.86,1.48-1.48,2.21-1.89c0.35,0.05,0.69,0.2,1.02,0.44c0.33,0.24,0.54,0.67,0.62,1.28
		C176.25,28.1,176.14,28.71,175.88,29.51z"/>
</g>
</svg>
